<svg width="253" height="152" viewBox="0 0 253 152" fill="none" xmlns="http://www.w3.org/2000/svg">
<circle cx="126" cy="76" r="76" fill="#E8B592"/>
<path d="M13.888 100.64C12.1813 100.64 10.56 100.427 9.024 100C7.53067 99.5307 6.144 98.8907 4.864 98.08C3.584 97.2267 2.47467 96.224 1.536 95.072L5.248 91.36C6.35733 92.7253 7.63733 93.7493 9.088 94.432C10.5387 95.072 12.16 95.392 13.952 95.392C15.744 95.392 17.1307 95.0933 18.112 94.496C19.0933 93.856 19.584 92.9813 19.584 91.872C19.584 90.7627 19.1787 89.9093 18.368 89.312C17.6 88.672 16.5973 88.16 15.36 87.776C14.1227 87.3493 12.8 86.944 11.392 86.56C10.0267 86.1333 8.72533 85.6 7.488 84.96C6.25067 84.32 5.22667 83.4453 4.416 82.336C3.648 81.2267 3.264 79.7547 3.264 77.92C3.264 76.0853 3.712 74.5067 4.608 73.184C5.504 71.8187 6.74133 70.7733 8.32 70.048C9.94133 69.3227 11.8827 68.96 14.144 68.96C16.5333 68.96 18.6453 69.3867 20.48 70.24C22.3573 71.0507 23.8933 72.288 25.088 73.952L21.376 77.664C20.5227 76.5547 19.456 75.7013 18.176 75.104C16.9387 74.5067 15.5307 74.208 13.952 74.208C12.288 74.208 11.008 74.5067 10.112 75.104C9.25867 75.6587 8.832 76.448 8.832 77.472C8.832 78.496 9.216 79.2853 9.984 79.84C10.752 80.3947 11.7547 80.864 12.992 81.248C14.272 81.632 15.5947 82.0373 16.96 82.464C18.3253 82.848 19.6267 83.3813 20.864 84.064C22.1013 84.7467 23.104 85.664 23.872 86.816C24.6827 87.968 25.088 89.4827 25.088 91.36C25.088 94.2187 24.064 96.48 22.016 98.144C20.0107 99.808 17.3013 100.64 13.888 100.64ZM31.5365 100V54.304H37.2965V100H31.5365ZM59.804 100.64C56.7747 100.64 54.044 99.9573 51.612 98.592C49.18 97.184 47.26 95.2853 45.852 92.896C44.444 90.5067 43.74 87.7973 43.74 84.768C43.74 81.7813 44.4227 79.0933 45.788 76.704C47.196 74.3147 49.0733 72.4373 51.42 71.072C53.8093 69.664 56.476 68.96 59.42 68.96C62.236 68.96 64.7107 69.6 66.844 70.88C69.02 72.16 70.7053 73.9307 71.9 76.192C73.1373 78.4533 73.756 81.0133 73.756 83.872C73.756 84.2987 73.7347 84.768 73.692 85.28C73.6493 85.7493 73.564 86.304 73.436 86.944H47.772V82.144H70.364L68.252 84C68.252 81.952 67.8893 80.224 67.164 78.816C66.4387 77.3653 65.4147 76.256 64.092 75.488C62.7693 74.6773 61.1693 74.272 59.292 74.272C57.3293 74.272 55.6013 74.6987 54.108 75.552C52.6147 76.4053 51.4627 77.6 50.652 79.136C49.8413 80.672 49.436 82.4853 49.436 84.576C49.436 86.7093 49.8627 88.5867 50.716 90.208C51.5693 91.7867 52.7853 93.024 54.364 93.92C55.9427 94.7733 57.756 95.2 59.804 95.2C61.5107 95.2 63.068 94.9013 64.476 94.304C65.9267 93.7067 67.164 92.8107 68.188 91.616L71.9 95.392C70.4493 97.0987 68.6573 98.4 66.524 99.296C64.4333 100.192 62.1933 100.64 59.804 100.64ZM96.0365 100.64C93.7325 100.64 91.6418 100.171 89.7645 99.232C87.9298 98.2507 86.4578 96.9067 85.3485 95.2C84.2392 93.4933 83.6205 91.552 83.4925 89.376V80.224C83.6205 78.0053 84.2392 76.064 85.3485 74.4C86.5005 72.6933 87.9938 71.3707 89.8285 70.432C91.7058 69.4507 93.7752 68.96 96.0365 68.96C98.8098 68.96 101.306 69.664 103.525 71.072C105.786 72.48 107.557 74.3787 108.837 76.768C110.117 79.1573 110.757 81.8453 110.757 84.832C110.757 87.8187 110.117 90.5067 108.837 92.896C107.557 95.2853 105.786 97.184 103.525 98.592C101.306 99.9573 98.8098 100.64 96.0365 100.64ZM95.0765 95.2C96.9965 95.2 98.6818 94.752 100.133 93.856C101.583 92.96 102.735 91.744 103.589 90.208C104.442 88.6293 104.869 86.816 104.869 84.768C104.869 82.7627 104.442 80.9707 103.589 79.392C102.735 77.8133 101.583 76.5973 100.133 75.744C98.6818 74.848 97.0178 74.4 95.1405 74.4C93.2205 74.4 91.5352 74.848 90.0845 75.744C88.6338 76.5973 87.5032 77.8133 86.6925 79.392C85.8818 80.9707 85.4765 82.784 85.4765 84.832C85.4765 86.8373 85.8605 88.6293 86.6285 90.208C87.4392 91.744 88.5698 92.96 90.0205 93.856C91.5138 94.752 93.1992 95.2 95.0765 95.2ZM80.0365 112.736V69.6H85.7965V77.6L84.7085 84.96L85.7965 92.384V112.736H80.0365ZM135.271 100V56.864H141.031V100H135.271ZM127.783 74.848V69.6H148.519V74.848H127.783ZM167.304 100.64C164.275 100.64 161.544 99.9573 159.112 98.592C156.68 97.184 154.76 95.2853 153.352 92.896C151.944 90.5067 151.24 87.7973 151.24 84.768C151.24 81.7813 151.923 79.0933 153.288 76.704C154.696 74.3147 156.573 72.4373 158.92 71.072C161.309 69.664 163.976 68.96 166.92 68.96C169.736 68.96 172.211 69.6 174.344 70.88C176.52 72.16 178.205 73.9307 179.4 76.192C180.637 78.4533 181.256 81.0133 181.256 83.872C181.256 84.2987 181.235 84.768 181.192 85.28C181.149 85.7493 181.064 86.304 180.936 86.944H155.272V82.144H177.864L175.752 84C175.752 81.952 175.389 80.224 174.664 78.816C173.939 77.3653 172.915 76.256 171.592 75.488C170.269 74.6773 168.669 74.272 166.792 74.272C164.829 74.272 163.101 74.6987 161.608 75.552C160.115 76.4053 158.963 77.6 158.152 79.136C157.341 80.672 156.936 82.4853 156.936 84.576C156.936 86.7093 157.363 88.5867 158.216 90.208C159.069 91.7867 160.285 93.024 161.864 93.92C163.443 94.7733 165.256 95.2 167.304 95.2C169.011 95.2 170.568 94.9013 171.976 94.304C173.427 93.7067 174.664 92.8107 175.688 91.616L179.4 95.392C177.949 97.0987 176.157 98.4 174.024 99.296C171.933 100.192 169.693 100.64 167.304 100.64ZM187.601 100V69.6H193.361V100H187.601ZM190.481 63.52C189.414 63.52 188.539 63.1787 187.857 62.496C187.174 61.7707 186.833 60.8747 186.833 59.808C186.833 58.784 187.174 57.9307 187.857 57.248C188.539 56.5227 189.414 56.16 190.481 56.16C191.547 56.16 192.422 56.5227 193.105 57.248C193.787 57.9307 194.129 58.784 194.129 59.808C194.129 60.8747 193.787 61.7707 193.105 62.496C192.422 63.1787 191.547 63.52 190.481 63.52ZM201.849 100V69.6H207.609V100H201.849ZM222.393 100V81.632C222.393 79.3707 221.689 77.6 220.281 76.32C218.916 74.9973 217.188 74.336 215.097 74.336C213.689 74.336 212.43 74.6347 211.321 75.232C210.212 75.8293 209.316 76.6613 208.633 77.728C207.95 78.7947 207.609 80.0747 207.609 81.568L205.241 80.416C205.241 78.112 205.732 76.1067 206.713 74.4C207.737 72.6933 209.124 71.3707 210.873 70.432C212.622 69.4507 214.585 68.96 216.761 68.96C218.894 68.96 220.814 69.4293 222.521 70.368C224.27 71.3067 225.636 72.6293 226.617 74.336C227.641 76.0427 228.153 78.0693 228.153 80.416V100H222.393ZM242.937 100V81.632C242.937 79.3707 242.233 77.6 240.825 76.32C239.46 74.9973 237.753 74.336 235.705 74.336C234.297 74.336 233.017 74.6347 231.865 75.232C230.756 75.8293 229.86 76.6613 229.177 77.728C228.494 78.7947 228.153 80.0747 228.153 81.568L224.889 80.416C225.017 78.0693 225.636 76.064 226.745 74.4C227.897 72.6933 229.369 71.3707 231.161 70.432C232.953 69.4507 234.916 68.96 237.049 68.96C239.268 68.96 241.252 69.4293 243.001 70.368C244.75 71.3067 246.137 72.6293 247.161 74.336C248.228 76.0427 248.761 78.0907 248.761 80.48V100H242.937Z" fill="white"/>
</svg>
